<mxfile host="Electron" modified="2023-10-03T14:20:46.071Z" agent="Mozilla/5.0 (Windows NT 10.0; Win64; x64) AppleWebKit/537.36 (KHTML, like Gecko) draw.io/21.7.5 Chrome/114.0.5735.289 Electron/25.8.1 Safari/537.36" etag="Xc-70VnQ94oyr5yXx_yg" version="21.7.5" type="device">
  <diagram name="Page-1" id="EV0N_0zAE1o75ZSzx6VL">
    <mxGraphModel dx="954" dy="893" grid="1" gridSize="10" guides="1" tooltips="1" connect="1" arrows="1" fold="1" page="1" pageScale="1" pageWidth="8000" pageHeight="10000" math="0" shadow="0">
      <root>
        <mxCell id="0" />
        <mxCell id="1" parent="0" />
        <mxCell id="wZaUvzQfkMMMU0mhXqtX-2" value="&lt;h1&gt;Функционал&lt;/h1&gt;&lt;div&gt;1. Сохранение&amp;nbsp; ( стурктура хранения &lt;span style=&quot;white-space: pre;&quot;&gt;&#x9;&lt;/span&gt;&lt;span style=&quot;white-space: pre;&quot;&gt;&#x9;&lt;/span&gt;&lt;span style=&quot;white-space: pre;&quot;&gt;&#x9;&lt;/span&gt;&lt;span style=&quot;white-space: pre;&quot;&gt;&#x9;&lt;/span&gt;&lt;span style=&quot;white-space: pre;&quot;&gt;&#x9;&lt;/span&gt;&lt;span style=&quot;white-space: pre;&quot;&gt;&#x9;&lt;/span&gt;список)&lt;/div&gt;&lt;div&gt;2.&amp;nbsp; чтение&amp;nbsp; &amp;nbsp; &amp;nbsp; &amp;nbsp; &amp;nbsp;(фильтрация по дате)&lt;/div&gt;&lt;div&gt;З. Добавление&lt;/div&gt;&lt;div&gt;4. редактирование&lt;/div&gt;&lt;div&gt;5. Удаление&amp;nbsp;&lt;/div&gt;&lt;p&gt;&lt;br&gt;&lt;/p&gt;" style="text;html=1;strokeColor=none;fillColor=none;spacing=5;spacingTop=-20;whiteSpace=wrap;overflow=hidden;rounded=0;align=left;" vertex="1" parent="1">
          <mxGeometry x="330" y="80" width="230" height="150" as="geometry" />
        </mxCell>
        <mxCell id="wZaUvzQfkMMMU0mhXqtX-3" value="&lt;font style=&quot;font-size: 38px;&quot;&gt;Классы&lt;/font&gt;" style="text;html=1;strokeColor=none;fillColor=none;align=center;verticalAlign=middle;whiteSpace=wrap;rounded=0;" vertex="1" parent="1">
          <mxGeometry x="390" y="310" width="60" height="30" as="geometry" />
        </mxCell>
        <mxCell id="wZaUvzQfkMMMU0mhXqtX-4" style="edgeStyle=orthogonalEdgeStyle;rounded=0;orthogonalLoop=1;jettySize=auto;html=1;exitX=0.5;exitY=1;exitDx=0;exitDy=0;" edge="1" parent="1" source="wZaUvzQfkMMMU0mhXqtX-3" target="wZaUvzQfkMMMU0mhXqtX-3">
          <mxGeometry relative="1" as="geometry" />
        </mxCell>
        <mxCell id="wZaUvzQfkMMMU0mhXqtX-7" value="&lt;h1&gt;Note&lt;/h1&gt;&lt;div&gt;&lt;br&gt;&lt;/div&gt;&lt;div&gt;id (автоинкремент не изменяемый)&lt;/div&gt;&lt;div&gt;title&lt;/div&gt;&lt;div&gt;body&lt;/div&gt;&lt;div&gt;data&lt;/div&gt;&lt;div&gt;&lt;br&gt;&lt;/div&gt;&lt;div&gt;&lt;br&gt;&lt;/div&gt;&lt;div&gt;get ID ( )&lt;/div&gt;&lt;div&gt;get Title ( )&lt;/div&gt;&lt;div&gt;get Body ( )&lt;/div&gt;&lt;div&gt;get data ( )&lt;/div&gt;&lt;div&gt;&lt;br&gt;&lt;/div&gt;&lt;div&gt;set Title ( )&lt;/div&gt;&lt;div&gt;set Body ( )&lt;/div&gt;&lt;div&gt;set Data ( )&lt;/div&gt;&lt;div&gt;&lt;br&gt;&lt;/div&gt;&lt;div&gt;to String ( )&amp;nbsp;&lt;/div&gt;&lt;div&gt;&lt;br&gt;&lt;/div&gt;&lt;div&gt;&lt;br&gt;&lt;/div&gt;" style="text;html=1;strokeColor=none;fillColor=none;spacing=5;spacingTop=-20;whiteSpace=wrap;overflow=hidden;rounded=0;" vertex="1" parent="1">
          <mxGeometry x="60" y="400" width="210" height="320" as="geometry" />
        </mxCell>
        <mxCell id="wZaUvzQfkMMMU0mhXqtX-8" value="&lt;h1&gt;Function&lt;/h1&gt;&lt;div&gt;note&amp;nbsp;&lt;/div&gt;&lt;div&gt;&lt;br&gt;&lt;/div&gt;&lt;div&gt;&lt;div&gt;save ( )&amp;nbsp;&lt;/div&gt;&lt;div&gt;read ( )&lt;/div&gt;&lt;div&gt;add ( )&lt;/div&gt;&lt;div&gt;edit ( )&lt;/div&gt;&lt;div&gt;del ( )&amp;nbsp;&lt;/div&gt;&lt;/div&gt;" style="text;html=1;strokeColor=none;fillColor=none;spacing=5;spacingTop=-20;whiteSpace=wrap;overflow=hidden;rounded=0;" vertex="1" parent="1">
          <mxGeometry x="330" y="400" width="190" height="180" as="geometry" />
        </mxCell>
        <mxCell id="wZaUvzQfkMMMU0mhXqtX-9" value="&lt;h1&gt;Данные&lt;/h1&gt;&lt;div&gt;id&lt;/div&gt;&lt;div&gt;title&lt;/div&gt;&lt;div&gt;body&lt;/div&gt;&lt;div&gt;data&amp;nbsp;&lt;/div&gt;" style="text;html=1;strokeColor=none;fillColor=none;spacing=5;spacingTop=-20;whiteSpace=wrap;overflow=hidden;rounded=0;" vertex="1" parent="1">
          <mxGeometry x="80" y="90" width="190" height="120" as="geometry" />
        </mxCell>
        <mxCell id="wZaUvzQfkMMMU0mhXqtX-11" value="&lt;h1&gt;TextApp&lt;/h1&gt;&lt;div&gt;text_save()&lt;/div&gt;&lt;div&gt;text_read()&lt;/div&gt;&lt;div&gt;text_add()&lt;/div&gt;&lt;div&gt;text_edit()&lt;/div&gt;&lt;div&gt;text_del()&lt;/div&gt;&lt;div&gt;text_start()&lt;/div&gt;&lt;div&gt;text_end()&lt;/div&gt;&lt;div&gt;text_menu()&lt;/div&gt;" style="text;html=1;strokeColor=none;fillColor=none;spacing=5;spacingTop=-20;whiteSpace=wrap;overflow=hidden;rounded=0;" vertex="1" parent="1">
          <mxGeometry x="600" y="400" width="190" height="170" as="geometry" />
        </mxCell>
        <mxCell id="wZaUvzQfkMMMU0mhXqtX-12" value="&lt;font style=&quot;font-size: 52px;&quot;&gt;Архитектура&amp;nbsp;&lt;/font&gt;" style="text;html=1;strokeColor=none;fillColor=none;align=center;verticalAlign=middle;whiteSpace=wrap;rounded=0;" vertex="1" parent="1">
          <mxGeometry x="275" y="700" width="300" height="90" as="geometry" />
        </mxCell>
        <mxCell id="wZaUvzQfkMMMU0mhXqtX-13" value="&lt;font style=&quot;font-size: 25px;&quot;&gt;МРС&amp;nbsp;&lt;/font&gt;" style="text;html=1;strokeColor=none;fillColor=none;align=center;verticalAlign=middle;whiteSpace=wrap;rounded=0;" vertex="1" parent="1">
          <mxGeometry x="390" y="790" width="60" height="30" as="geometry" />
        </mxCell>
        <mxCell id="wZaUvzQfkMMMU0mhXqtX-14" value="&lt;font style=&quot;font-size: 30px;&quot;&gt;М&amp;nbsp;&lt;/font&gt;" style="text;html=1;strokeColor=none;fillColor=none;align=center;verticalAlign=middle;whiteSpace=wrap;rounded=0;" vertex="1" parent="1">
          <mxGeometry x="80" y="840" width="100" height="50" as="geometry" />
        </mxCell>
        <mxCell id="wZaUvzQfkMMMU0mhXqtX-15" value="&lt;font style=&quot;font-size: 20px;&quot;&gt;Note&amp;nbsp;&lt;/font&gt;" style="text;html=1;strokeColor=none;fillColor=none;align=center;verticalAlign=middle;whiteSpace=wrap;rounded=0;" vertex="1" parent="1">
          <mxGeometry x="100" y="900" width="60" height="30" as="geometry" />
        </mxCell>
        <mxCell id="wZaUvzQfkMMMU0mhXqtX-16" value="&lt;font style=&quot;font-size: 20px;&quot;&gt;Function&amp;nbsp;&lt;/font&gt;" style="text;html=1;strokeColor=none;fillColor=none;align=center;verticalAlign=middle;whiteSpace=wrap;rounded=0;" vertex="1" parent="1">
          <mxGeometry x="100" y="940" width="60" height="30" as="geometry" />
        </mxCell>
        <mxCell id="wZaUvzQfkMMMU0mhXqtX-17" value="&lt;font style=&quot;font-size: 30px;&quot;&gt;P&amp;nbsp;&lt;/font&gt;" style="text;html=1;strokeColor=none;fillColor=none;align=center;verticalAlign=middle;whiteSpace=wrap;rounded=0;" vertex="1" parent="1">
          <mxGeometry x="380" y="850" width="60" height="20" as="geometry" />
        </mxCell>
        <mxCell id="wZaUvzQfkMMMU0mhXqtX-18" value="&lt;span style=&quot;font-size: 30px;&quot;&gt;C&lt;/span&gt;" style="text;html=1;strokeColor=none;fillColor=none;align=center;verticalAlign=middle;whiteSpace=wrap;rounded=0;" vertex="1" parent="1">
          <mxGeometry x="620" y="850" width="60" height="20" as="geometry" />
        </mxCell>
        <mxCell id="wZaUvzQfkMMMU0mhXqtX-19" value="&lt;span style=&quot;font-size: 20px;&quot;&gt;TextArea&lt;/span&gt;" style="text;html=1;strokeColor=none;fillColor=none;align=center;verticalAlign=middle;whiteSpace=wrap;rounded=0;" vertex="1" parent="1">
          <mxGeometry x="600" y="890" width="120" height="30" as="geometry" />
        </mxCell>
        <mxCell id="wZaUvzQfkMMMU0mhXqtX-20" value="&lt;font style=&quot;font-size: 20px;&quot;&gt;Controler code&lt;/font&gt;" style="text;html=1;align=center;verticalAlign=middle;resizable=0;points=[];autosize=1;strokeColor=none;fillColor=none;" vertex="1" parent="1">
          <mxGeometry x="590" y="930" width="150" height="40" as="geometry" />
        </mxCell>
        <mxCell id="wZaUvzQfkMMMU0mhXqtX-23" value="&lt;font style=&quot;font-size: 20px;&quot;&gt;Module&lt;/font&gt;" style="text;html=1;strokeColor=none;fillColor=none;align=center;verticalAlign=middle;whiteSpace=wrap;rounded=0;" vertex="1" parent="1">
          <mxGeometry x="380" y="890" width="60" height="30" as="geometry" />
        </mxCell>
        <mxCell id="wZaUvzQfkMMMU0mhXqtX-24" value="&lt;span style=&quot;font-size: 20px;&quot;&gt;Controler&lt;/span&gt;" style="text;html=1;strokeColor=none;fillColor=none;align=center;verticalAlign=middle;whiteSpace=wrap;rounded=0;" vertex="1" parent="1">
          <mxGeometry x="380" y="930" width="60" height="30" as="geometry" />
        </mxCell>
        <mxCell id="wZaUvzQfkMMMU0mhXqtX-25" value="&lt;span style=&quot;font-size: 20px;&quot;&gt;Client Code&lt;/span&gt;" style="text;html=1;strokeColor=none;fillColor=none;align=center;verticalAlign=middle;whiteSpace=wrap;rounded=0;" vertex="1" parent="1">
          <mxGeometry x="350" y="970" width="120" height="30" as="geometry" />
        </mxCell>
      </root>
    </mxGraphModel>
  </diagram>
</mxfile>
